<mxfile host="Electron" modified="2024-05-19T15:05:16.583Z" agent="Mozilla/5.0 (Windows NT 10.0; Win64; x64) AppleWebKit/537.36 (KHTML, like Gecko) draw.io/23.1.5 Chrome/120.0.6099.109 Electron/28.1.0 Safari/537.36" etag="Jb6sjuhh8KACVIqzmtld" version="23.1.5" type="device">
  <diagram name="Page-1" id="Wq1zo4G9-_D3kbdEsbHx">
    <mxGraphModel dx="1950" dy="1360" grid="1" gridSize="10" guides="1" tooltips="1" connect="1" arrows="1" fold="1" page="1" pageScale="1" pageWidth="850" pageHeight="1100" math="0" shadow="0">
      <root>
        <mxCell id="0" />
        <mxCell id="1" parent="0" />
        <mxCell id="ab0CNl2YUueAFvUZnDGe-1" value="&lt;font style=&quot;font-size: 24px;&quot;&gt;Admin&lt;/font&gt;" style="shape=umlActor;verticalLabelPosition=bottom;verticalAlign=top;html=1;outlineConnect=0;strokeWidth=3;" vertex="1" parent="1">
          <mxGeometry x="10" y="1010" width="170" height="270" as="geometry" />
        </mxCell>
        <mxCell id="ab0CNl2YUueAFvUZnDGe-4" value="Login" style="ellipse;whiteSpace=wrap;html=1;" vertex="1" parent="1">
          <mxGeometry x="615" y="1190" width="160" height="80" as="geometry" />
        </mxCell>
        <mxCell id="ab0CNl2YUueAFvUZnDGe-5" value="Dasboard" style="ellipse;whiteSpace=wrap;html=1;" vertex="1" parent="1">
          <mxGeometry x="200" y="330" width="160" height="80" as="geometry" />
        </mxCell>
        <mxCell id="ab0CNl2YUueAFvUZnDGe-6" value="Anggota" style="ellipse;whiteSpace=wrap;html=1;" vertex="1" parent="1">
          <mxGeometry x="200" y="521" width="160" height="80" as="geometry" />
        </mxCell>
        <mxCell id="ab0CNl2YUueAFvUZnDGe-7" value="Buku" style="ellipse;whiteSpace=wrap;html=1;" vertex="1" parent="1">
          <mxGeometry x="210" y="790" width="160" height="80" as="geometry" />
        </mxCell>
        <mxCell id="ab0CNl2YUueAFvUZnDGe-8" value="Kategori" style="ellipse;whiteSpace=wrap;html=1;" vertex="1" parent="1">
          <mxGeometry x="220" y="1430" width="160" height="80" as="geometry" />
        </mxCell>
        <mxCell id="ab0CNl2YUueAFvUZnDGe-9" value="Penerbit" style="ellipse;whiteSpace=wrap;html=1;" vertex="1" parent="1">
          <mxGeometry x="225" y="1730" width="160" height="80" as="geometry" />
        </mxCell>
        <mxCell id="ab0CNl2YUueAFvUZnDGe-10" value="Petugas" style="ellipse;whiteSpace=wrap;html=1;" vertex="1" parent="1">
          <mxGeometry x="225" y="2060" width="160" height="80" as="geometry" />
        </mxCell>
        <mxCell id="ab0CNl2YUueAFvUZnDGe-11" value="Peminjaman" style="ellipse;whiteSpace=wrap;html=1;" vertex="1" parent="1">
          <mxGeometry x="225" y="2390" width="160" height="80" as="geometry" />
        </mxCell>
        <mxCell id="ab0CNl2YUueAFvUZnDGe-12" value="Pengembalian" style="ellipse;whiteSpace=wrap;html=1;" vertex="1" parent="1">
          <mxGeometry x="210" y="2720" width="160" height="80" as="geometry" />
        </mxCell>
        <mxCell id="ab0CNl2YUueAFvUZnDGe-13" value="Laporan Peminjaman" style="ellipse;whiteSpace=wrap;html=1;" vertex="1" parent="1">
          <mxGeometry x="210" y="3000" width="160" height="80" as="geometry" />
        </mxCell>
        <mxCell id="ab0CNl2YUueAFvUZnDGe-14" value="" style="endArrow=none;html=1;rounded=0;exitX=0.5;exitY=0.5;exitDx=0;exitDy=0;exitPerimeter=0;entryX=0;entryY=0.5;entryDx=0;entryDy=0;" edge="1" parent="1" source="ab0CNl2YUueAFvUZnDGe-1" target="ab0CNl2YUueAFvUZnDGe-4">
          <mxGeometry width="50" height="50" relative="1" as="geometry">
            <mxPoint x="650" y="410" as="sourcePoint" />
            <mxPoint x="700" y="360" as="targetPoint" />
          </mxGeometry>
        </mxCell>
        <mxCell id="ab0CNl2YUueAFvUZnDGe-15" value="" style="endArrow=none;html=1;rounded=0;exitX=0.5;exitY=0.5;exitDx=0;exitDy=0;exitPerimeter=0;entryX=0;entryY=0.5;entryDx=0;entryDy=0;" edge="1" parent="1" source="ab0CNl2YUueAFvUZnDGe-1" target="ab0CNl2YUueAFvUZnDGe-5">
          <mxGeometry width="50" height="50" relative="1" as="geometry">
            <mxPoint x="410" y="635" as="sourcePoint" />
            <mxPoint x="605" y="260" as="targetPoint" />
          </mxGeometry>
        </mxCell>
        <mxCell id="ab0CNl2YUueAFvUZnDGe-16" value="" style="endArrow=none;html=1;rounded=0;exitX=0.5;exitY=0.5;exitDx=0;exitDy=0;exitPerimeter=0;entryX=0;entryY=0.5;entryDx=0;entryDy=0;" edge="1" parent="1" source="ab0CNl2YUueAFvUZnDGe-1" target="ab0CNl2YUueAFvUZnDGe-6">
          <mxGeometry width="50" height="50" relative="1" as="geometry">
            <mxPoint x="70" y="645" as="sourcePoint" />
            <mxPoint x="265" y="410" as="targetPoint" />
          </mxGeometry>
        </mxCell>
        <mxCell id="ab0CNl2YUueAFvUZnDGe-17" value="" style="endArrow=none;html=1;rounded=0;exitX=0.5;exitY=0.5;exitDx=0;exitDy=0;exitPerimeter=0;entryX=0;entryY=0.5;entryDx=0;entryDy=0;" edge="1" parent="1" source="ab0CNl2YUueAFvUZnDGe-1" target="ab0CNl2YUueAFvUZnDGe-7">
          <mxGeometry width="50" height="50" relative="1" as="geometry">
            <mxPoint x="110" y="668" as="sourcePoint" />
            <mxPoint x="305" y="433" as="targetPoint" />
          </mxGeometry>
        </mxCell>
        <mxCell id="ab0CNl2YUueAFvUZnDGe-18" value="" style="endArrow=none;html=1;rounded=0;exitX=0.5;exitY=0.5;exitDx=0;exitDy=0;exitPerimeter=0;entryX=0;entryY=0.5;entryDx=0;entryDy=0;" edge="1" parent="1" source="ab0CNl2YUueAFvUZnDGe-1" target="ab0CNl2YUueAFvUZnDGe-8">
          <mxGeometry width="50" height="50" relative="1" as="geometry">
            <mxPoint x="120" y="687.5" as="sourcePoint" />
            <mxPoint x="315" y="452.5" as="targetPoint" />
          </mxGeometry>
        </mxCell>
        <mxCell id="ab0CNl2YUueAFvUZnDGe-19" value="" style="endArrow=none;html=1;rounded=0;exitX=0.5;exitY=0.5;exitDx=0;exitDy=0;exitPerimeter=0;entryX=0;entryY=0.5;entryDx=0;entryDy=0;" edge="1" parent="1" source="ab0CNl2YUueAFvUZnDGe-1" target="ab0CNl2YUueAFvUZnDGe-9">
          <mxGeometry width="50" height="50" relative="1" as="geometry">
            <mxPoint x="80" y="715" as="sourcePoint" />
            <mxPoint x="275" y="480" as="targetPoint" />
          </mxGeometry>
        </mxCell>
        <mxCell id="ab0CNl2YUueAFvUZnDGe-20" value="" style="endArrow=none;html=1;rounded=0;exitX=0.5;exitY=0.5;exitDx=0;exitDy=0;exitPerimeter=0;entryX=0;entryY=0.5;entryDx=0;entryDy=0;" edge="1" parent="1" source="ab0CNl2YUueAFvUZnDGe-1" target="ab0CNl2YUueAFvUZnDGe-10">
          <mxGeometry width="50" height="50" relative="1" as="geometry">
            <mxPoint x="20" y="855" as="sourcePoint" />
            <mxPoint x="215" y="620" as="targetPoint" />
          </mxGeometry>
        </mxCell>
        <mxCell id="ab0CNl2YUueAFvUZnDGe-21" value="" style="endArrow=none;html=1;rounded=0;exitX=0;exitY=0.5;exitDx=0;exitDy=0;entryX=0.5;entryY=0.5;entryDx=0;entryDy=0;entryPerimeter=0;" edge="1" parent="1" source="ab0CNl2YUueAFvUZnDGe-11" target="ab0CNl2YUueAFvUZnDGe-1">
          <mxGeometry width="50" height="50" relative="1" as="geometry">
            <mxPoint x="-130" y="957.5" as="sourcePoint" />
            <mxPoint x="65" y="722.5" as="targetPoint" />
          </mxGeometry>
        </mxCell>
        <mxCell id="ab0CNl2YUueAFvUZnDGe-22" value="" style="endArrow=none;html=1;rounded=0;exitX=0;exitY=0.5;exitDx=0;exitDy=0;entryX=0.5;entryY=0.5;entryDx=0;entryDy=0;entryPerimeter=0;" edge="1" parent="1" source="ab0CNl2YUueAFvUZnDGe-12" target="ab0CNl2YUueAFvUZnDGe-1">
          <mxGeometry width="50" height="50" relative="1" as="geometry">
            <mxPoint x="-195" y="985" as="sourcePoint" />
            <mxPoint y="750" as="targetPoint" />
          </mxGeometry>
        </mxCell>
        <mxCell id="ab0CNl2YUueAFvUZnDGe-23" value="" style="endArrow=none;html=1;rounded=0;exitX=0;exitY=0.5;exitDx=0;exitDy=0;entryX=0.5;entryY=0.5;entryDx=0;entryDy=0;entryPerimeter=0;" edge="1" parent="1" source="ab0CNl2YUueAFvUZnDGe-13" target="ab0CNl2YUueAFvUZnDGe-1">
          <mxGeometry width="50" height="50" relative="1" as="geometry">
            <mxPoint x="-250" y="925" as="sourcePoint" />
            <mxPoint x="-55" y="690" as="targetPoint" />
          </mxGeometry>
        </mxCell>
        <mxCell id="ab0CNl2YUueAFvUZnDGe-24" value="Menu Dashboard" style="ellipse;whiteSpace=wrap;html=1;" vertex="1" parent="1">
          <mxGeometry x="640" y="330" width="160" height="80" as="geometry" />
        </mxCell>
        <mxCell id="ab0CNl2YUueAFvUZnDGe-25" value="Jumlah Anggota" style="ellipse;whiteSpace=wrap;html=1;" vertex="1" parent="1">
          <mxGeometry x="425" y="220" width="160" height="80" as="geometry" />
        </mxCell>
        <mxCell id="ab0CNl2YUueAFvUZnDGe-26" value="Jumlah Buku" style="ellipse;whiteSpace=wrap;html=1;" vertex="1" parent="1">
          <mxGeometry x="600" y="170" width="160" height="80" as="geometry" />
        </mxCell>
        <mxCell id="ab0CNl2YUueAFvUZnDGe-27" value="Jumlah peminjaman" style="ellipse;whiteSpace=wrap;html=1;" vertex="1" parent="1">
          <mxGeometry x="780" y="180" width="160" height="80" as="geometry" />
        </mxCell>
        <mxCell id="ab0CNl2YUueAFvUZnDGe-29" value="" style="endArrow=none;dashed=1;html=1;rounded=0;entryX=0.5;entryY=1;entryDx=0;entryDy=0;exitX=0;exitY=0;exitDx=0;exitDy=0;startArrow=classic;startFill=1;" edge="1" parent="1" source="ab0CNl2YUueAFvUZnDGe-24" target="ab0CNl2YUueAFvUZnDGe-25">
          <mxGeometry width="50" height="50" relative="1" as="geometry">
            <mxPoint x="500" y="420" as="sourcePoint" />
            <mxPoint x="550" y="370" as="targetPoint" />
          </mxGeometry>
        </mxCell>
        <mxCell id="ab0CNl2YUueAFvUZnDGe-30" value="" style="endArrow=none;dashed=1;html=1;rounded=0;entryX=0.5;entryY=1;entryDx=0;entryDy=0;exitX=0.5;exitY=0;exitDx=0;exitDy=0;startArrow=classic;startFill=1;" edge="1" parent="1" source="ab0CNl2YUueAFvUZnDGe-24" target="ab0CNl2YUueAFvUZnDGe-26">
          <mxGeometry width="50" height="50" relative="1" as="geometry">
            <mxPoint x="633" y="452" as="sourcePoint" />
            <mxPoint x="490" y="390" as="targetPoint" />
          </mxGeometry>
        </mxCell>
        <mxCell id="ab0CNl2YUueAFvUZnDGe-31" value="" style="endArrow=none;dashed=1;html=1;rounded=0;entryX=0.5;entryY=1;entryDx=0;entryDy=0;startArrow=classic;startFill=1;" edge="1" parent="1" source="ab0CNl2YUueAFvUZnDGe-24" target="ab0CNl2YUueAFvUZnDGe-27">
          <mxGeometry width="50" height="50" relative="1" as="geometry">
            <mxPoint x="903" y="502" as="sourcePoint" />
            <mxPoint x="760" y="440" as="targetPoint" />
          </mxGeometry>
        </mxCell>
        <mxCell id="ab0CNl2YUueAFvUZnDGe-32" value="" style="endArrow=classic;html=1;rounded=0;exitX=1;exitY=0.5;exitDx=0;exitDy=0;entryX=0;entryY=0.5;entryDx=0;entryDy=0;" edge="1" parent="1" source="ab0CNl2YUueAFvUZnDGe-5" target="ab0CNl2YUueAFvUZnDGe-24">
          <mxGeometry width="50" height="50" relative="1" as="geometry">
            <mxPoint x="430" y="400" as="sourcePoint" />
            <mxPoint x="480" y="350" as="targetPoint" />
          </mxGeometry>
        </mxCell>
        <mxCell id="ab0CNl2YUueAFvUZnDGe-33" value="Jumlah pengembalian" style="ellipse;whiteSpace=wrap;html=1;" vertex="1" parent="1">
          <mxGeometry x="940" y="220" width="160" height="80" as="geometry" />
        </mxCell>
        <mxCell id="ab0CNl2YUueAFvUZnDGe-34" value="" style="endArrow=none;dashed=1;html=1;rounded=0;entryX=0.5;entryY=1;entryDx=0;entryDy=0;startArrow=classic;startFill=1;" edge="1" parent="1" target="ab0CNl2YUueAFvUZnDGe-33">
          <mxGeometry width="50" height="50" relative="1" as="geometry">
            <mxPoint x="800" y="370" as="sourcePoint" />
            <mxPoint x="957" y="310" as="targetPoint" />
          </mxGeometry>
        </mxCell>
        <mxCell id="ab0CNl2YUueAFvUZnDGe-35" value="&amp;lt;&amp;lt;Include&amp;gt;&amp;gt;" style="text;html=1;align=center;verticalAlign=middle;whiteSpace=wrap;rounded=0;rotation=15;" vertex="1" parent="1">
          <mxGeometry x="580" y="300" width="50" height="21" as="geometry" />
        </mxCell>
        <mxCell id="ab0CNl2YUueAFvUZnDGe-36" value="&amp;lt;&amp;lt;Include&amp;gt;&amp;gt;" style="text;html=1;align=center;verticalAlign=middle;whiteSpace=wrap;rounded=0;rotation=65;" vertex="1" parent="1">
          <mxGeometry x="690" y="279" width="50" height="21" as="geometry" />
        </mxCell>
        <mxCell id="ab0CNl2YUueAFvUZnDGe-37" value="&amp;lt;&amp;lt;Include&amp;gt;&amp;gt;" style="text;html=1;align=center;verticalAlign=middle;whiteSpace=wrap;rounded=0;rotation=-45;" vertex="1" parent="1">
          <mxGeometry x="770" y="280" width="50" height="21" as="geometry" />
        </mxCell>
        <mxCell id="ab0CNl2YUueAFvUZnDGe-38" value="&amp;lt;&amp;lt;Include&amp;gt;&amp;gt;" style="text;html=1;align=center;verticalAlign=middle;whiteSpace=wrap;rounded=0;rotation=-15;" vertex="1" parent="1">
          <mxGeometry x="850" y="321" width="50" height="21" as="geometry" />
        </mxCell>
        <mxCell id="ab0CNl2YUueAFvUZnDGe-39" value="Menu Anggota" style="ellipse;whiteSpace=wrap;html=1;" vertex="1" parent="1">
          <mxGeometry x="620" y="521" width="160" height="80" as="geometry" />
        </mxCell>
        <mxCell id="ab0CNl2YUueAFvUZnDGe-40" value="" style="endArrow=classic;html=1;rounded=0;exitX=1;exitY=0.5;exitDx=0;exitDy=0;entryX=0;entryY=0.5;entryDx=0;entryDy=0;" edge="1" parent="1" source="ab0CNl2YUueAFvUZnDGe-6" target="ab0CNl2YUueAFvUZnDGe-39">
          <mxGeometry width="50" height="50" relative="1" as="geometry">
            <mxPoint x="485" y="530" as="sourcePoint" />
            <mxPoint x="535" y="480" as="targetPoint" />
          </mxGeometry>
        </mxCell>
        <mxCell id="ab0CNl2YUueAFvUZnDGe-41" value="Data Anggota" style="ellipse;whiteSpace=wrap;html=1;" vertex="1" parent="1">
          <mxGeometry x="425" y="611" width="160" height="80" as="geometry" />
        </mxCell>
        <mxCell id="ab0CNl2YUueAFvUZnDGe-42" value="Tambah Anggota" style="ellipse;whiteSpace=wrap;html=1;" vertex="1" parent="1">
          <mxGeometry x="565" y="681" width="160" height="80" as="geometry" />
        </mxCell>
        <mxCell id="ab0CNl2YUueAFvUZnDGe-43" value="Ubah Anggota" style="ellipse;whiteSpace=wrap;html=1;" vertex="1" parent="1">
          <mxGeometry x="745" y="681" width="160" height="80" as="geometry" />
        </mxCell>
        <mxCell id="ab0CNl2YUueAFvUZnDGe-44" value="Hapus Anggota" style="ellipse;whiteSpace=wrap;html=1;" vertex="1" parent="1">
          <mxGeometry x="845" y="581" width="160" height="80" as="geometry" />
        </mxCell>
        <mxCell id="ab0CNl2YUueAFvUZnDGe-45" value="" style="endArrow=none;dashed=1;html=1;rounded=0;entryX=1;entryY=0;entryDx=0;entryDy=0;exitX=0;exitY=1;exitDx=0;exitDy=0;startArrow=classic;startFill=1;" edge="1" parent="1" source="ab0CNl2YUueAFvUZnDGe-39" target="ab0CNl2YUueAFvUZnDGe-41">
          <mxGeometry width="50" height="50" relative="1" as="geometry">
            <mxPoint x="755" y="643" as="sourcePoint" />
            <mxPoint x="597" y="601" as="targetPoint" />
          </mxGeometry>
        </mxCell>
        <mxCell id="ab0CNl2YUueAFvUZnDGe-46" value="" style="endArrow=none;dashed=1;html=1;rounded=0;entryX=0.5;entryY=0;entryDx=0;entryDy=0;exitX=0.302;exitY=0.98;exitDx=0;exitDy=0;startArrow=classic;startFill=1;exitPerimeter=0;" edge="1" parent="1" source="ab0CNl2YUueAFvUZnDGe-39" target="ab0CNl2YUueAFvUZnDGe-42">
          <mxGeometry width="50" height="50" relative="1" as="geometry">
            <mxPoint x="813" y="672" as="sourcePoint" />
            <mxPoint x="655" y="630" as="targetPoint" />
          </mxGeometry>
        </mxCell>
        <mxCell id="ab0CNl2YUueAFvUZnDGe-47" value="" style="endArrow=none;dashed=1;html=1;rounded=0;entryX=0;entryY=0;entryDx=0;entryDy=0;exitX=0.5;exitY=1;exitDx=0;exitDy=0;startArrow=classic;startFill=1;" edge="1" parent="1" source="ab0CNl2YUueAFvUZnDGe-39" target="ab0CNl2YUueAFvUZnDGe-43">
          <mxGeometry width="50" height="50" relative="1" as="geometry">
            <mxPoint x="933" y="553" as="sourcePoint" />
            <mxPoint x="775" y="511" as="targetPoint" />
          </mxGeometry>
        </mxCell>
        <mxCell id="ab0CNl2YUueAFvUZnDGe-48" value="" style="endArrow=none;dashed=1;html=1;rounded=0;entryX=0;entryY=0.5;entryDx=0;entryDy=0;exitX=1;exitY=1;exitDx=0;exitDy=0;startArrow=classic;startFill=1;" edge="1" parent="1" source="ab0CNl2YUueAFvUZnDGe-39" target="ab0CNl2YUueAFvUZnDGe-44">
          <mxGeometry width="50" height="50" relative="1" as="geometry">
            <mxPoint x="993" y="521" as="sourcePoint" />
            <mxPoint x="835" y="479" as="targetPoint" />
          </mxGeometry>
        </mxCell>
        <mxCell id="ab0CNl2YUueAFvUZnDGe-49" value="&amp;lt;&amp;lt;Include&amp;gt;&amp;gt;" style="text;html=1;align=center;verticalAlign=middle;whiteSpace=wrap;rounded=0;rotation=-30;" vertex="1" parent="1">
          <mxGeometry x="565" y="581" width="50" height="21" as="geometry" />
        </mxCell>
        <mxCell id="ab0CNl2YUueAFvUZnDGe-51" value="&amp;lt;&amp;lt;Extends&amp;gt;&amp;gt;" style="text;html=1;align=center;verticalAlign=middle;whiteSpace=wrap;rounded=0;rotation=-70;" vertex="1" parent="1">
          <mxGeometry x="620" y="631" width="50" height="21" as="geometry" />
        </mxCell>
        <mxCell id="ab0CNl2YUueAFvUZnDGe-54" value="&amp;lt;&amp;lt;Extends&amp;gt;&amp;gt;" style="text;html=1;align=center;verticalAlign=middle;whiteSpace=wrap;rounded=0;rotation=45;" vertex="1" parent="1">
          <mxGeometry x="725" y="631" width="50" height="21" as="geometry" />
        </mxCell>
        <mxCell id="ab0CNl2YUueAFvUZnDGe-57" value="&amp;lt;&amp;lt;Extends&amp;gt;&amp;gt;" style="text;html=1;align=center;verticalAlign=middle;whiteSpace=wrap;rounded=0;rotation=25;" vertex="1" parent="1">
          <mxGeometry x="785" y="581" width="50" height="21" as="geometry" />
        </mxCell>
        <mxCell id="ab0CNl2YUueAFvUZnDGe-59" value="Menu Buku" style="ellipse;whiteSpace=wrap;html=1;" vertex="1" parent="1">
          <mxGeometry x="635" y="790" width="160" height="80" as="geometry" />
        </mxCell>
        <mxCell id="ab0CNl2YUueAFvUZnDGe-60" value="Data Buku" style="ellipse;whiteSpace=wrap;html=1;" vertex="1" parent="1">
          <mxGeometry x="440" y="880" width="160" height="80" as="geometry" />
        </mxCell>
        <mxCell id="ab0CNl2YUueAFvUZnDGe-61" value="Tambah Buku" style="ellipse;whiteSpace=wrap;html=1;" vertex="1" parent="1">
          <mxGeometry x="580" y="950" width="160" height="80" as="geometry" />
        </mxCell>
        <mxCell id="ab0CNl2YUueAFvUZnDGe-62" value="Ubah Buku" style="ellipse;whiteSpace=wrap;html=1;" vertex="1" parent="1">
          <mxGeometry x="760" y="950" width="160" height="80" as="geometry" />
        </mxCell>
        <mxCell id="ab0CNl2YUueAFvUZnDGe-63" value="Hapus Buku" style="ellipse;whiteSpace=wrap;html=1;" vertex="1" parent="1">
          <mxGeometry x="860" y="850" width="160" height="80" as="geometry" />
        </mxCell>
        <mxCell id="ab0CNl2YUueAFvUZnDGe-64" value="" style="endArrow=none;dashed=1;html=1;rounded=0;entryX=1;entryY=0;entryDx=0;entryDy=0;exitX=0;exitY=1;exitDx=0;exitDy=0;startArrow=classic;startFill=1;" edge="1" parent="1" source="ab0CNl2YUueAFvUZnDGe-59" target="ab0CNl2YUueAFvUZnDGe-60">
          <mxGeometry width="50" height="50" relative="1" as="geometry">
            <mxPoint x="770" y="912" as="sourcePoint" />
            <mxPoint x="612" y="870" as="targetPoint" />
          </mxGeometry>
        </mxCell>
        <mxCell id="ab0CNl2YUueAFvUZnDGe-65" value="" style="endArrow=none;dashed=1;html=1;rounded=0;entryX=0.5;entryY=0;entryDx=0;entryDy=0;exitX=0.302;exitY=0.98;exitDx=0;exitDy=0;startArrow=classic;startFill=1;exitPerimeter=0;" edge="1" parent="1" source="ab0CNl2YUueAFvUZnDGe-59" target="ab0CNl2YUueAFvUZnDGe-61">
          <mxGeometry width="50" height="50" relative="1" as="geometry">
            <mxPoint x="828" y="941" as="sourcePoint" />
            <mxPoint x="670" y="899" as="targetPoint" />
          </mxGeometry>
        </mxCell>
        <mxCell id="ab0CNl2YUueAFvUZnDGe-66" value="" style="endArrow=none;dashed=1;html=1;rounded=0;entryX=0;entryY=0;entryDx=0;entryDy=0;exitX=0.5;exitY=1;exitDx=0;exitDy=0;startArrow=classic;startFill=1;" edge="1" parent="1" source="ab0CNl2YUueAFvUZnDGe-59" target="ab0CNl2YUueAFvUZnDGe-62">
          <mxGeometry width="50" height="50" relative="1" as="geometry">
            <mxPoint x="948" y="822" as="sourcePoint" />
            <mxPoint x="790" y="780" as="targetPoint" />
          </mxGeometry>
        </mxCell>
        <mxCell id="ab0CNl2YUueAFvUZnDGe-67" value="" style="endArrow=none;dashed=1;html=1;rounded=0;entryX=0;entryY=0.5;entryDx=0;entryDy=0;exitX=1;exitY=1;exitDx=0;exitDy=0;startArrow=classic;startFill=1;" edge="1" parent="1" source="ab0CNl2YUueAFvUZnDGe-59" target="ab0CNl2YUueAFvUZnDGe-63">
          <mxGeometry width="50" height="50" relative="1" as="geometry">
            <mxPoint x="1008" y="790" as="sourcePoint" />
            <mxPoint x="850" y="748" as="targetPoint" />
          </mxGeometry>
        </mxCell>
        <mxCell id="ab0CNl2YUueAFvUZnDGe-68" value="&amp;lt;&amp;lt;Include&amp;gt;&amp;gt;" style="text;html=1;align=center;verticalAlign=middle;whiteSpace=wrap;rounded=0;rotation=-30;" vertex="1" parent="1">
          <mxGeometry x="580" y="850" width="50" height="21" as="geometry" />
        </mxCell>
        <mxCell id="ab0CNl2YUueAFvUZnDGe-69" value="&amp;lt;&amp;lt;Extends&amp;gt;&amp;gt;" style="text;html=1;align=center;verticalAlign=middle;whiteSpace=wrap;rounded=0;rotation=-70;" vertex="1" parent="1">
          <mxGeometry x="635" y="900" width="50" height="21" as="geometry" />
        </mxCell>
        <mxCell id="ab0CNl2YUueAFvUZnDGe-70" value="&amp;lt;&amp;lt;Extends&amp;gt;&amp;gt;" style="text;html=1;align=center;verticalAlign=middle;whiteSpace=wrap;rounded=0;rotation=45;" vertex="1" parent="1">
          <mxGeometry x="740" y="900" width="50" height="21" as="geometry" />
        </mxCell>
        <mxCell id="ab0CNl2YUueAFvUZnDGe-71" value="&amp;lt;&amp;lt;Extends&amp;gt;&amp;gt;" style="text;html=1;align=center;verticalAlign=middle;whiteSpace=wrap;rounded=0;rotation=25;" vertex="1" parent="1">
          <mxGeometry x="800" y="850" width="50" height="21" as="geometry" />
        </mxCell>
        <mxCell id="ab0CNl2YUueAFvUZnDGe-72" value="" style="endArrow=classic;html=1;rounded=0;exitX=1;exitY=0.5;exitDx=0;exitDy=0;entryX=0;entryY=0.5;entryDx=0;entryDy=0;" edge="1" parent="1" source="ab0CNl2YUueAFvUZnDGe-7" target="ab0CNl2YUueAFvUZnDGe-59">
          <mxGeometry width="50" height="50" relative="1" as="geometry">
            <mxPoint x="440" y="830" as="sourcePoint" />
            <mxPoint x="490" y="780" as="targetPoint" />
          </mxGeometry>
        </mxCell>
        <mxCell id="ab0CNl2YUueAFvUZnDGe-73" value="Menu Kategori" style="ellipse;whiteSpace=wrap;html=1;" vertex="1" parent="1">
          <mxGeometry x="615" y="1430" width="160" height="80" as="geometry" />
        </mxCell>
        <mxCell id="ab0CNl2YUueAFvUZnDGe-74" value="Data Kategori" style="ellipse;whiteSpace=wrap;html=1;" vertex="1" parent="1">
          <mxGeometry x="420" y="1530" width="160" height="80" as="geometry" />
        </mxCell>
        <mxCell id="ab0CNl2YUueAFvUZnDGe-75" value="Tambah Kategori" style="ellipse;whiteSpace=wrap;html=1;" vertex="1" parent="1">
          <mxGeometry x="560" y="1600" width="160" height="80" as="geometry" />
        </mxCell>
        <mxCell id="ab0CNl2YUueAFvUZnDGe-76" value="Ubah Kategori" style="ellipse;whiteSpace=wrap;html=1;" vertex="1" parent="1">
          <mxGeometry x="740" y="1600" width="160" height="80" as="geometry" />
        </mxCell>
        <mxCell id="ab0CNl2YUueAFvUZnDGe-77" value="Hapus Kategori" style="ellipse;whiteSpace=wrap;html=1;" vertex="1" parent="1">
          <mxGeometry x="840" y="1500" width="160" height="80" as="geometry" />
        </mxCell>
        <mxCell id="ab0CNl2YUueAFvUZnDGe-78" value="" style="endArrow=none;dashed=1;html=1;rounded=0;entryX=1;entryY=0;entryDx=0;entryDy=0;exitX=0;exitY=1;exitDx=0;exitDy=0;startArrow=classic;startFill=1;" edge="1" parent="1" source="ab0CNl2YUueAFvUZnDGe-73" target="ab0CNl2YUueAFvUZnDGe-74">
          <mxGeometry width="50" height="50" relative="1" as="geometry">
            <mxPoint x="750" y="1562" as="sourcePoint" />
            <mxPoint x="592" y="1520" as="targetPoint" />
          </mxGeometry>
        </mxCell>
        <mxCell id="ab0CNl2YUueAFvUZnDGe-79" value="" style="endArrow=none;dashed=1;html=1;rounded=0;entryX=0.5;entryY=0;entryDx=0;entryDy=0;exitX=0.302;exitY=0.98;exitDx=0;exitDy=0;startArrow=classic;startFill=1;exitPerimeter=0;" edge="1" parent="1" source="ab0CNl2YUueAFvUZnDGe-73" target="ab0CNl2YUueAFvUZnDGe-75">
          <mxGeometry width="50" height="50" relative="1" as="geometry">
            <mxPoint x="808" y="1591" as="sourcePoint" />
            <mxPoint x="650" y="1549" as="targetPoint" />
          </mxGeometry>
        </mxCell>
        <mxCell id="ab0CNl2YUueAFvUZnDGe-80" value="" style="endArrow=none;dashed=1;html=1;rounded=0;entryX=0;entryY=0;entryDx=0;entryDy=0;exitX=0.5;exitY=1;exitDx=0;exitDy=0;startArrow=classic;startFill=1;" edge="1" parent="1" source="ab0CNl2YUueAFvUZnDGe-73" target="ab0CNl2YUueAFvUZnDGe-76">
          <mxGeometry width="50" height="50" relative="1" as="geometry">
            <mxPoint x="928" y="1472" as="sourcePoint" />
            <mxPoint x="770" y="1430" as="targetPoint" />
          </mxGeometry>
        </mxCell>
        <mxCell id="ab0CNl2YUueAFvUZnDGe-81" value="" style="endArrow=none;dashed=1;html=1;rounded=0;entryX=0;entryY=0.5;entryDx=0;entryDy=0;exitX=1;exitY=1;exitDx=0;exitDy=0;startArrow=classic;startFill=1;" edge="1" parent="1" source="ab0CNl2YUueAFvUZnDGe-73" target="ab0CNl2YUueAFvUZnDGe-77">
          <mxGeometry width="50" height="50" relative="1" as="geometry">
            <mxPoint x="988" y="1440" as="sourcePoint" />
            <mxPoint x="830" y="1398" as="targetPoint" />
          </mxGeometry>
        </mxCell>
        <mxCell id="ab0CNl2YUueAFvUZnDGe-82" value="&amp;lt;&amp;lt;Include&amp;gt;&amp;gt;" style="text;html=1;align=center;verticalAlign=middle;whiteSpace=wrap;rounded=0;rotation=-30;" vertex="1" parent="1">
          <mxGeometry x="560" y="1500" width="50" height="21" as="geometry" />
        </mxCell>
        <mxCell id="ab0CNl2YUueAFvUZnDGe-83" value="&amp;lt;&amp;lt;Extends&amp;gt;&amp;gt;" style="text;html=1;align=center;verticalAlign=middle;whiteSpace=wrap;rounded=0;rotation=-70;" vertex="1" parent="1">
          <mxGeometry x="615" y="1550" width="50" height="21" as="geometry" />
        </mxCell>
        <mxCell id="ab0CNl2YUueAFvUZnDGe-84" value="&amp;lt;&amp;lt;Extends&amp;gt;&amp;gt;" style="text;html=1;align=center;verticalAlign=middle;whiteSpace=wrap;rounded=0;rotation=45;" vertex="1" parent="1">
          <mxGeometry x="720" y="1550" width="50" height="21" as="geometry" />
        </mxCell>
        <mxCell id="ab0CNl2YUueAFvUZnDGe-85" value="&amp;lt;&amp;lt;Extends&amp;gt;&amp;gt;" style="text;html=1;align=center;verticalAlign=middle;whiteSpace=wrap;rounded=0;rotation=25;" vertex="1" parent="1">
          <mxGeometry x="780" y="1500" width="50" height="21" as="geometry" />
        </mxCell>
        <mxCell id="ab0CNl2YUueAFvUZnDGe-86" value="" style="endArrow=classic;html=1;rounded=0;exitX=1;exitY=0.5;exitDx=0;exitDy=0;entryX=0;entryY=0.5;entryDx=0;entryDy=0;" edge="1" parent="1" source="ab0CNl2YUueAFvUZnDGe-8" target="ab0CNl2YUueAFvUZnDGe-73">
          <mxGeometry width="50" height="50" relative="1" as="geometry">
            <mxPoint x="540" y="1430" as="sourcePoint" />
            <mxPoint x="590" y="1380" as="targetPoint" />
          </mxGeometry>
        </mxCell>
        <mxCell id="ab0CNl2YUueAFvUZnDGe-87" value="Menu Penerbit" style="ellipse;whiteSpace=wrap;html=1;" vertex="1" parent="1">
          <mxGeometry x="605" y="1730" width="160" height="80" as="geometry" />
        </mxCell>
        <mxCell id="ab0CNl2YUueAFvUZnDGe-88" value="Data Penerbit" style="ellipse;whiteSpace=wrap;html=1;" vertex="1" parent="1">
          <mxGeometry x="410" y="1830" width="160" height="80" as="geometry" />
        </mxCell>
        <mxCell id="ab0CNl2YUueAFvUZnDGe-89" value="Tambah Penerbit" style="ellipse;whiteSpace=wrap;html=1;" vertex="1" parent="1">
          <mxGeometry x="550" y="1900" width="160" height="80" as="geometry" />
        </mxCell>
        <mxCell id="ab0CNl2YUueAFvUZnDGe-90" value="Ubah Penerbit" style="ellipse;whiteSpace=wrap;html=1;" vertex="1" parent="1">
          <mxGeometry x="730" y="1900" width="160" height="80" as="geometry" />
        </mxCell>
        <mxCell id="ab0CNl2YUueAFvUZnDGe-91" value="Hapus Penerbit" style="ellipse;whiteSpace=wrap;html=1;" vertex="1" parent="1">
          <mxGeometry x="830" y="1800" width="160" height="80" as="geometry" />
        </mxCell>
        <mxCell id="ab0CNl2YUueAFvUZnDGe-92" value="" style="endArrow=none;dashed=1;html=1;rounded=0;entryX=1;entryY=0;entryDx=0;entryDy=0;exitX=0;exitY=1;exitDx=0;exitDy=0;startArrow=classic;startFill=1;" edge="1" parent="1" source="ab0CNl2YUueAFvUZnDGe-87" target="ab0CNl2YUueAFvUZnDGe-88">
          <mxGeometry width="50" height="50" relative="1" as="geometry">
            <mxPoint x="740" y="1862" as="sourcePoint" />
            <mxPoint x="582" y="1820" as="targetPoint" />
          </mxGeometry>
        </mxCell>
        <mxCell id="ab0CNl2YUueAFvUZnDGe-93" value="" style="endArrow=none;dashed=1;html=1;rounded=0;entryX=0.5;entryY=0;entryDx=0;entryDy=0;exitX=0.302;exitY=0.98;exitDx=0;exitDy=0;startArrow=classic;startFill=1;exitPerimeter=0;" edge="1" parent="1" source="ab0CNl2YUueAFvUZnDGe-87" target="ab0CNl2YUueAFvUZnDGe-89">
          <mxGeometry width="50" height="50" relative="1" as="geometry">
            <mxPoint x="798" y="1891" as="sourcePoint" />
            <mxPoint x="640" y="1849" as="targetPoint" />
          </mxGeometry>
        </mxCell>
        <mxCell id="ab0CNl2YUueAFvUZnDGe-94" value="" style="endArrow=none;dashed=1;html=1;rounded=0;entryX=0;entryY=0;entryDx=0;entryDy=0;exitX=0.5;exitY=1;exitDx=0;exitDy=0;startArrow=classic;startFill=1;" edge="1" parent="1" source="ab0CNl2YUueAFvUZnDGe-87" target="ab0CNl2YUueAFvUZnDGe-90">
          <mxGeometry width="50" height="50" relative="1" as="geometry">
            <mxPoint x="918" y="1772" as="sourcePoint" />
            <mxPoint x="760" y="1730" as="targetPoint" />
          </mxGeometry>
        </mxCell>
        <mxCell id="ab0CNl2YUueAFvUZnDGe-95" value="" style="endArrow=none;dashed=1;html=1;rounded=0;entryX=0;entryY=0.5;entryDx=0;entryDy=0;exitX=1;exitY=1;exitDx=0;exitDy=0;startArrow=classic;startFill=1;" edge="1" parent="1" source="ab0CNl2YUueAFvUZnDGe-87" target="ab0CNl2YUueAFvUZnDGe-91">
          <mxGeometry width="50" height="50" relative="1" as="geometry">
            <mxPoint x="978" y="1740" as="sourcePoint" />
            <mxPoint x="820" y="1698" as="targetPoint" />
          </mxGeometry>
        </mxCell>
        <mxCell id="ab0CNl2YUueAFvUZnDGe-96" value="&amp;lt;&amp;lt;Include&amp;gt;&amp;gt;" style="text;html=1;align=center;verticalAlign=middle;whiteSpace=wrap;rounded=0;rotation=-30;" vertex="1" parent="1">
          <mxGeometry x="550" y="1800" width="50" height="21" as="geometry" />
        </mxCell>
        <mxCell id="ab0CNl2YUueAFvUZnDGe-97" value="&amp;lt;&amp;lt;Extends&amp;gt;&amp;gt;" style="text;html=1;align=center;verticalAlign=middle;whiteSpace=wrap;rounded=0;rotation=-70;" vertex="1" parent="1">
          <mxGeometry x="605" y="1850" width="50" height="21" as="geometry" />
        </mxCell>
        <mxCell id="ab0CNl2YUueAFvUZnDGe-98" value="&amp;lt;&amp;lt;Extends&amp;gt;&amp;gt;" style="text;html=1;align=center;verticalAlign=middle;whiteSpace=wrap;rounded=0;rotation=45;" vertex="1" parent="1">
          <mxGeometry x="710" y="1850" width="50" height="21" as="geometry" />
        </mxCell>
        <mxCell id="ab0CNl2YUueAFvUZnDGe-99" value="&amp;lt;&amp;lt;Extends&amp;gt;&amp;gt;" style="text;html=1;align=center;verticalAlign=middle;whiteSpace=wrap;rounded=0;rotation=25;" vertex="1" parent="1">
          <mxGeometry x="770" y="1800" width="50" height="21" as="geometry" />
        </mxCell>
        <mxCell id="ab0CNl2YUueAFvUZnDGe-100" value="" style="endArrow=classic;html=1;rounded=0;exitX=1;exitY=0.5;exitDx=0;exitDy=0;entryX=0;entryY=0.5;entryDx=0;entryDy=0;" edge="1" parent="1" source="ab0CNl2YUueAFvUZnDGe-9" target="ab0CNl2YUueAFvUZnDGe-87">
          <mxGeometry width="50" height="50" relative="1" as="geometry">
            <mxPoint x="470" y="1770" as="sourcePoint" />
            <mxPoint x="520" y="1720" as="targetPoint" />
          </mxGeometry>
        </mxCell>
        <mxCell id="ab0CNl2YUueAFvUZnDGe-101" value="Menu Petugas" style="ellipse;whiteSpace=wrap;html=1;" vertex="1" parent="1">
          <mxGeometry x="605" y="2060" width="160" height="80" as="geometry" />
        </mxCell>
        <mxCell id="ab0CNl2YUueAFvUZnDGe-102" value="Data Petugas" style="ellipse;whiteSpace=wrap;html=1;" vertex="1" parent="1">
          <mxGeometry x="410" y="2160" width="160" height="80" as="geometry" />
        </mxCell>
        <mxCell id="ab0CNl2YUueAFvUZnDGe-103" value="Tambah Petugas" style="ellipse;whiteSpace=wrap;html=1;" vertex="1" parent="1">
          <mxGeometry x="550" y="2230" width="160" height="80" as="geometry" />
        </mxCell>
        <mxCell id="ab0CNl2YUueAFvUZnDGe-104" value="Ubah Petugas" style="ellipse;whiteSpace=wrap;html=1;" vertex="1" parent="1">
          <mxGeometry x="730" y="2230" width="160" height="80" as="geometry" />
        </mxCell>
        <mxCell id="ab0CNl2YUueAFvUZnDGe-105" value="Hapus Petugas" style="ellipse;whiteSpace=wrap;html=1;" vertex="1" parent="1">
          <mxGeometry x="830" y="2130" width="160" height="80" as="geometry" />
        </mxCell>
        <mxCell id="ab0CNl2YUueAFvUZnDGe-106" value="" style="endArrow=none;dashed=1;html=1;rounded=0;entryX=1;entryY=0;entryDx=0;entryDy=0;exitX=0;exitY=1;exitDx=0;exitDy=0;startArrow=classic;startFill=1;" edge="1" parent="1" source="ab0CNl2YUueAFvUZnDGe-101" target="ab0CNl2YUueAFvUZnDGe-102">
          <mxGeometry width="50" height="50" relative="1" as="geometry">
            <mxPoint x="740" y="2192" as="sourcePoint" />
            <mxPoint x="582" y="2150" as="targetPoint" />
          </mxGeometry>
        </mxCell>
        <mxCell id="ab0CNl2YUueAFvUZnDGe-107" value="" style="endArrow=none;dashed=1;html=1;rounded=0;entryX=0.5;entryY=0;entryDx=0;entryDy=0;exitX=0.302;exitY=0.98;exitDx=0;exitDy=0;startArrow=classic;startFill=1;exitPerimeter=0;" edge="1" parent="1" source="ab0CNl2YUueAFvUZnDGe-101" target="ab0CNl2YUueAFvUZnDGe-103">
          <mxGeometry width="50" height="50" relative="1" as="geometry">
            <mxPoint x="798" y="2221" as="sourcePoint" />
            <mxPoint x="640" y="2179" as="targetPoint" />
          </mxGeometry>
        </mxCell>
        <mxCell id="ab0CNl2YUueAFvUZnDGe-108" value="" style="endArrow=none;dashed=1;html=1;rounded=0;entryX=0;entryY=0;entryDx=0;entryDy=0;exitX=0.5;exitY=1;exitDx=0;exitDy=0;startArrow=classic;startFill=1;" edge="1" parent="1" source="ab0CNl2YUueAFvUZnDGe-101" target="ab0CNl2YUueAFvUZnDGe-104">
          <mxGeometry width="50" height="50" relative="1" as="geometry">
            <mxPoint x="918" y="2102" as="sourcePoint" />
            <mxPoint x="760" y="2060" as="targetPoint" />
          </mxGeometry>
        </mxCell>
        <mxCell id="ab0CNl2YUueAFvUZnDGe-109" value="" style="endArrow=none;dashed=1;html=1;rounded=0;entryX=0;entryY=0.5;entryDx=0;entryDy=0;exitX=1;exitY=1;exitDx=0;exitDy=0;startArrow=classic;startFill=1;" edge="1" parent="1" source="ab0CNl2YUueAFvUZnDGe-101" target="ab0CNl2YUueAFvUZnDGe-105">
          <mxGeometry width="50" height="50" relative="1" as="geometry">
            <mxPoint x="978" y="2070" as="sourcePoint" />
            <mxPoint x="820" y="2028" as="targetPoint" />
          </mxGeometry>
        </mxCell>
        <mxCell id="ab0CNl2YUueAFvUZnDGe-110" value="&amp;lt;&amp;lt;Include&amp;gt;&amp;gt;" style="text;html=1;align=center;verticalAlign=middle;whiteSpace=wrap;rounded=0;rotation=-30;" vertex="1" parent="1">
          <mxGeometry x="550" y="2130" width="50" height="21" as="geometry" />
        </mxCell>
        <mxCell id="ab0CNl2YUueAFvUZnDGe-111" value="&amp;lt;&amp;lt;Extends&amp;gt;&amp;gt;" style="text;html=1;align=center;verticalAlign=middle;whiteSpace=wrap;rounded=0;rotation=-70;" vertex="1" parent="1">
          <mxGeometry x="605" y="2180" width="50" height="21" as="geometry" />
        </mxCell>
        <mxCell id="ab0CNl2YUueAFvUZnDGe-112" value="&amp;lt;&amp;lt;Extends&amp;gt;&amp;gt;" style="text;html=1;align=center;verticalAlign=middle;whiteSpace=wrap;rounded=0;rotation=45;" vertex="1" parent="1">
          <mxGeometry x="710" y="2180" width="50" height="21" as="geometry" />
        </mxCell>
        <mxCell id="ab0CNl2YUueAFvUZnDGe-113" value="&amp;lt;&amp;lt;Extends&amp;gt;&amp;gt;" style="text;html=1;align=center;verticalAlign=middle;whiteSpace=wrap;rounded=0;rotation=25;" vertex="1" parent="1">
          <mxGeometry x="770" y="2130" width="50" height="21" as="geometry" />
        </mxCell>
        <mxCell id="ab0CNl2YUueAFvUZnDGe-114" value="" style="endArrow=classic;html=1;rounded=0;exitX=1;exitY=0.5;exitDx=0;exitDy=0;entryX=0;entryY=0.5;entryDx=0;entryDy=0;" edge="1" parent="1" source="ab0CNl2YUueAFvUZnDGe-10" target="ab0CNl2YUueAFvUZnDGe-101">
          <mxGeometry width="50" height="50" relative="1" as="geometry">
            <mxPoint x="520" y="2060" as="sourcePoint" />
            <mxPoint x="570" y="2010" as="targetPoint" />
          </mxGeometry>
        </mxCell>
        <mxCell id="ab0CNl2YUueAFvUZnDGe-115" value="Menu Peminjam" style="ellipse;whiteSpace=wrap;html=1;" vertex="1" parent="1">
          <mxGeometry x="605" y="2390" width="160" height="80" as="geometry" />
        </mxCell>
        <mxCell id="ab0CNl2YUueAFvUZnDGe-116" value="Data Peminjam" style="ellipse;whiteSpace=wrap;html=1;" vertex="1" parent="1">
          <mxGeometry x="410" y="2490" width="160" height="80" as="geometry" />
        </mxCell>
        <mxCell id="ab0CNl2YUueAFvUZnDGe-117" value="Tambah Peminjam" style="ellipse;whiteSpace=wrap;html=1;" vertex="1" parent="1">
          <mxGeometry x="550" y="2560" width="160" height="80" as="geometry" />
        </mxCell>
        <mxCell id="ab0CNl2YUueAFvUZnDGe-118" value="Ubah" style="ellipse;whiteSpace=wrap;html=1;" vertex="1" parent="1">
          <mxGeometry x="730" y="2560" width="160" height="80" as="geometry" />
        </mxCell>
        <mxCell id="ab0CNl2YUueAFvUZnDGe-119" value="Hapus" style="ellipse;whiteSpace=wrap;html=1;" vertex="1" parent="1">
          <mxGeometry x="830" y="2460" width="160" height="80" as="geometry" />
        </mxCell>
        <mxCell id="ab0CNl2YUueAFvUZnDGe-120" value="" style="endArrow=none;dashed=1;html=1;rounded=0;entryX=1;entryY=0;entryDx=0;entryDy=0;exitX=0;exitY=1;exitDx=0;exitDy=0;startArrow=classic;startFill=1;" edge="1" parent="1" source="ab0CNl2YUueAFvUZnDGe-115" target="ab0CNl2YUueAFvUZnDGe-116">
          <mxGeometry width="50" height="50" relative="1" as="geometry">
            <mxPoint x="740" y="2522" as="sourcePoint" />
            <mxPoint x="582" y="2480" as="targetPoint" />
          </mxGeometry>
        </mxCell>
        <mxCell id="ab0CNl2YUueAFvUZnDGe-121" value="" style="endArrow=none;dashed=1;html=1;rounded=0;entryX=0.5;entryY=0;entryDx=0;entryDy=0;exitX=0.302;exitY=0.98;exitDx=0;exitDy=0;startArrow=classic;startFill=1;exitPerimeter=0;" edge="1" parent="1" source="ab0CNl2YUueAFvUZnDGe-115" target="ab0CNl2YUueAFvUZnDGe-117">
          <mxGeometry width="50" height="50" relative="1" as="geometry">
            <mxPoint x="798" y="2551" as="sourcePoint" />
            <mxPoint x="640" y="2509" as="targetPoint" />
          </mxGeometry>
        </mxCell>
        <mxCell id="ab0CNl2YUueAFvUZnDGe-122" value="" style="endArrow=none;dashed=1;html=1;rounded=0;entryX=0;entryY=0;entryDx=0;entryDy=0;exitX=0.5;exitY=1;exitDx=0;exitDy=0;startArrow=classic;startFill=1;" edge="1" parent="1" source="ab0CNl2YUueAFvUZnDGe-115" target="ab0CNl2YUueAFvUZnDGe-118">
          <mxGeometry width="50" height="50" relative="1" as="geometry">
            <mxPoint x="918" y="2432" as="sourcePoint" />
            <mxPoint x="760" y="2390" as="targetPoint" />
          </mxGeometry>
        </mxCell>
        <mxCell id="ab0CNl2YUueAFvUZnDGe-123" value="" style="endArrow=none;dashed=1;html=1;rounded=0;entryX=0;entryY=0.5;entryDx=0;entryDy=0;exitX=1;exitY=1;exitDx=0;exitDy=0;startArrow=classic;startFill=1;" edge="1" parent="1" source="ab0CNl2YUueAFvUZnDGe-115" target="ab0CNl2YUueAFvUZnDGe-119">
          <mxGeometry width="50" height="50" relative="1" as="geometry">
            <mxPoint x="978" y="2400" as="sourcePoint" />
            <mxPoint x="820" y="2358" as="targetPoint" />
          </mxGeometry>
        </mxCell>
        <mxCell id="ab0CNl2YUueAFvUZnDGe-124" value="&amp;lt;&amp;lt;Include&amp;gt;&amp;gt;" style="text;html=1;align=center;verticalAlign=middle;whiteSpace=wrap;rounded=0;rotation=-30;" vertex="1" parent="1">
          <mxGeometry x="550" y="2460" width="50" height="21" as="geometry" />
        </mxCell>
        <mxCell id="ab0CNl2YUueAFvUZnDGe-125" value="&amp;lt;&amp;lt;Extends&amp;gt;&amp;gt;" style="text;html=1;align=center;verticalAlign=middle;whiteSpace=wrap;rounded=0;rotation=-70;" vertex="1" parent="1">
          <mxGeometry x="605" y="2510" width="50" height="21" as="geometry" />
        </mxCell>
        <mxCell id="ab0CNl2YUueAFvUZnDGe-126" value="&amp;lt;&amp;lt;Extends&amp;gt;&amp;gt;" style="text;html=1;align=center;verticalAlign=middle;whiteSpace=wrap;rounded=0;rotation=45;" vertex="1" parent="1">
          <mxGeometry x="710" y="2510" width="50" height="21" as="geometry" />
        </mxCell>
        <mxCell id="ab0CNl2YUueAFvUZnDGe-127" value="&amp;lt;&amp;lt;Extends&amp;gt;&amp;gt;" style="text;html=1;align=center;verticalAlign=middle;whiteSpace=wrap;rounded=0;rotation=25;" vertex="1" parent="1">
          <mxGeometry x="770" y="2460" width="50" height="21" as="geometry" />
        </mxCell>
        <mxCell id="ab0CNl2YUueAFvUZnDGe-128" value="" style="endArrow=classic;html=1;rounded=0;exitX=1;exitY=0.5;exitDx=0;exitDy=0;entryX=0;entryY=0.5;entryDx=0;entryDy=0;" edge="1" parent="1" source="ab0CNl2YUueAFvUZnDGe-11" target="ab0CNl2YUueAFvUZnDGe-115">
          <mxGeometry width="50" height="50" relative="1" as="geometry">
            <mxPoint x="500" y="2390" as="sourcePoint" />
            <mxPoint x="550" y="2340" as="targetPoint" />
          </mxGeometry>
        </mxCell>
        <mxCell id="ab0CNl2YUueAFvUZnDGe-129" value="Menu Pengembalian" style="ellipse;whiteSpace=wrap;html=1;" vertex="1" parent="1">
          <mxGeometry x="605" y="2720" width="160" height="80" as="geometry" />
        </mxCell>
        <mxCell id="ab0CNl2YUueAFvUZnDGe-130" value="Denda" style="ellipse;whiteSpace=wrap;html=1;" vertex="1" parent="1">
          <mxGeometry x="465" y="2860" width="160" height="80" as="geometry" />
        </mxCell>
        <mxCell id="ab0CNl2YUueAFvUZnDGe-131" value="Data Peminjaman" style="ellipse;whiteSpace=wrap;html=1;" vertex="1" parent="1">
          <mxGeometry x="725" y="2860" width="160" height="80" as="geometry" />
        </mxCell>
        <mxCell id="ab0CNl2YUueAFvUZnDGe-134" value="" style="endArrow=none;dashed=1;html=1;rounded=0;entryX=0.5;entryY=0;entryDx=0;entryDy=0;exitX=0;exitY=1;exitDx=0;exitDy=0;startArrow=classic;startFill=1;" edge="1" parent="1" source="ab0CNl2YUueAFvUZnDGe-129" target="ab0CNl2YUueAFvUZnDGe-130">
          <mxGeometry width="50" height="50" relative="1" as="geometry">
            <mxPoint x="740" y="2852" as="sourcePoint" />
            <mxPoint x="582" y="2810" as="targetPoint" />
          </mxGeometry>
        </mxCell>
        <mxCell id="ab0CNl2YUueAFvUZnDGe-135" value="" style="endArrow=none;dashed=1;html=1;rounded=0;entryX=0.5;entryY=0;entryDx=0;entryDy=0;exitX=1;exitY=1;exitDx=0;exitDy=0;startArrow=classic;startFill=1;" edge="1" parent="1" source="ab0CNl2YUueAFvUZnDGe-129" target="ab0CNl2YUueAFvUZnDGe-131">
          <mxGeometry width="50" height="50" relative="1" as="geometry">
            <mxPoint x="798" y="2881" as="sourcePoint" />
            <mxPoint x="640" y="2839" as="targetPoint" />
          </mxGeometry>
        </mxCell>
        <mxCell id="ab0CNl2YUueAFvUZnDGe-138" value="&amp;lt;&amp;lt;Include&amp;gt;&amp;gt;" style="text;html=1;align=center;verticalAlign=middle;whiteSpace=wrap;rounded=0;rotation=-45;" vertex="1" parent="1">
          <mxGeometry x="545" y="2811" width="50" height="21" as="geometry" />
        </mxCell>
        <mxCell id="ab0CNl2YUueAFvUZnDGe-139" value="&amp;lt;&amp;lt;Extends&amp;gt;&amp;gt;" style="text;html=1;align=center;verticalAlign=middle;whiteSpace=wrap;rounded=0;rotation=45;" vertex="1" parent="1">
          <mxGeometry x="760" y="2811" width="50" height="21" as="geometry" />
        </mxCell>
        <mxCell id="ab0CNl2YUueAFvUZnDGe-142" value="" style="endArrow=classic;html=1;rounded=0;exitX=1;exitY=0.5;exitDx=0;exitDy=0;entryX=0;entryY=0.5;entryDx=0;entryDy=0;" edge="1" parent="1" source="ab0CNl2YUueAFvUZnDGe-12" target="ab0CNl2YUueAFvUZnDGe-129">
          <mxGeometry width="50" height="50" relative="1" as="geometry">
            <mxPoint x="370" y="2750" as="sourcePoint" />
            <mxPoint x="510" y="2700" as="targetPoint" />
          </mxGeometry>
        </mxCell>
        <mxCell id="ab0CNl2YUueAFvUZnDGe-146" value="Laporan" style="ellipse;whiteSpace=wrap;html=1;" vertex="1" parent="1">
          <mxGeometry x="575" y="3000" width="160" height="80" as="geometry" />
        </mxCell>
        <mxCell id="ab0CNl2YUueAFvUZnDGe-147" value="Data Peminjaman" style="ellipse;whiteSpace=wrap;html=1;" vertex="1" parent="1">
          <mxGeometry x="435" y="3150" width="160" height="80" as="geometry" />
        </mxCell>
        <mxCell id="ab0CNl2YUueAFvUZnDGe-148" value="Print Laporan" style="ellipse;whiteSpace=wrap;html=1;" vertex="1" parent="1">
          <mxGeometry x="695" y="3150" width="160" height="80" as="geometry" />
        </mxCell>
        <mxCell id="ab0CNl2YUueAFvUZnDGe-149" value="" style="endArrow=none;dashed=1;html=1;rounded=0;entryX=0.5;entryY=0;entryDx=0;entryDy=0;exitX=0;exitY=1;exitDx=0;exitDy=0;startArrow=classic;startFill=1;" edge="1" parent="1" source="ab0CNl2YUueAFvUZnDGe-146" target="ab0CNl2YUueAFvUZnDGe-147">
          <mxGeometry width="50" height="50" relative="1" as="geometry">
            <mxPoint x="710" y="3142" as="sourcePoint" />
            <mxPoint x="552" y="3100" as="targetPoint" />
          </mxGeometry>
        </mxCell>
        <mxCell id="ab0CNl2YUueAFvUZnDGe-150" value="" style="endArrow=none;dashed=1;html=1;rounded=0;entryX=0.5;entryY=0;entryDx=0;entryDy=0;exitX=1;exitY=1;exitDx=0;exitDy=0;startArrow=classic;startFill=1;" edge="1" parent="1" source="ab0CNl2YUueAFvUZnDGe-146" target="ab0CNl2YUueAFvUZnDGe-148">
          <mxGeometry width="50" height="50" relative="1" as="geometry">
            <mxPoint x="768" y="3171" as="sourcePoint" />
            <mxPoint x="610" y="3129" as="targetPoint" />
          </mxGeometry>
        </mxCell>
        <mxCell id="ab0CNl2YUueAFvUZnDGe-151" value="&amp;lt;&amp;lt;Extends&amp;gt;&amp;gt;" style="text;html=1;align=center;verticalAlign=middle;whiteSpace=wrap;rounded=0;rotation=-45;" vertex="1" parent="1">
          <mxGeometry x="515" y="3101" width="50" height="21" as="geometry" />
        </mxCell>
        <mxCell id="ab0CNl2YUueAFvUZnDGe-152" value="&amp;lt;&amp;lt;Extends&amp;gt;&amp;gt;" style="text;html=1;align=center;verticalAlign=middle;whiteSpace=wrap;rounded=0;rotation=50;" vertex="1" parent="1">
          <mxGeometry x="735" y="3101" width="50" height="21" as="geometry" />
        </mxCell>
        <mxCell id="ab0CNl2YUueAFvUZnDGe-153" value="" style="endArrow=classic;html=1;rounded=0;exitX=1;exitY=0.5;exitDx=0;exitDy=0;" edge="1" parent="1" source="ab0CNl2YUueAFvUZnDGe-13" target="ab0CNl2YUueAFvUZnDGe-146">
          <mxGeometry width="50" height="50" relative="1" as="geometry">
            <mxPoint x="430" y="3030" as="sourcePoint" />
            <mxPoint x="480" y="2980" as="targetPoint" />
          </mxGeometry>
        </mxCell>
        <mxCell id="ab0CNl2YUueAFvUZnDGe-155" value="&lt;font style=&quot;font-size: 24px;&quot;&gt;Mahasiswa&lt;/font&gt;" style="shape=umlActor;verticalLabelPosition=bottom;verticalAlign=top;html=1;outlineConnect=0;strokeWidth=3;" vertex="1" parent="1">
          <mxGeometry x="1600" y="2480" width="170" height="270" as="geometry" />
        </mxCell>
        <mxCell id="ab0CNl2YUueAFvUZnDGe-158" value="Peminjaman" style="ellipse;whiteSpace=wrap;html=1;" vertex="1" parent="1">
          <mxGeometry x="1325" y="2390" width="160" height="80" as="geometry" />
        </mxCell>
        <mxCell id="ab0CNl2YUueAFvUZnDGe-159" value="Pengembalian" style="ellipse;whiteSpace=wrap;html=1;" vertex="1" parent="1">
          <mxGeometry x="1290" y="2720" width="160" height="80" as="geometry" />
        </mxCell>
        <mxCell id="ab0CNl2YUueAFvUZnDGe-160" value="" style="endArrow=none;html=1;rounded=0;exitX=1;exitY=0.5;exitDx=0;exitDy=0;entryX=0.5;entryY=0.5;entryDx=0;entryDy=0;entryPerimeter=0;" edge="1" parent="1" source="ab0CNl2YUueAFvUZnDGe-4" target="ab0CNl2YUueAFvUZnDGe-155">
          <mxGeometry width="50" height="50" relative="1" as="geometry">
            <mxPoint x="1330" y="1320" as="sourcePoint" />
            <mxPoint x="1380" y="1270" as="targetPoint" />
          </mxGeometry>
        </mxCell>
        <mxCell id="ab0CNl2YUueAFvUZnDGe-161" value="" style="endArrow=none;html=1;rounded=0;exitX=1;exitY=0.5;exitDx=0;exitDy=0;entryX=0.5;entryY=0.5;entryDx=0;entryDy=0;entryPerimeter=0;" edge="1" parent="1" source="ab0CNl2YUueAFvUZnDGe-158" target="ab0CNl2YUueAFvUZnDGe-155">
          <mxGeometry width="50" height="50" relative="1" as="geometry">
            <mxPoint x="1600" y="2214.5" as="sourcePoint" />
            <mxPoint x="1650" y="2164.5" as="targetPoint" />
          </mxGeometry>
        </mxCell>
        <mxCell id="ab0CNl2YUueAFvUZnDGe-162" value="" style="endArrow=none;html=1;rounded=0;exitX=1;exitY=0.5;exitDx=0;exitDy=0;entryX=0.5;entryY=0.5;entryDx=0;entryDy=0;entryPerimeter=0;" edge="1" parent="1" source="ab0CNl2YUueAFvUZnDGe-159" target="ab0CNl2YUueAFvUZnDGe-155">
          <mxGeometry width="50" height="50" relative="1" as="geometry">
            <mxPoint x="1470" y="2604.5" as="sourcePoint" />
            <mxPoint x="1520" y="2554.5" as="targetPoint" />
          </mxGeometry>
        </mxCell>
        <mxCell id="ab0CNl2YUueAFvUZnDGe-164" value="" style="endArrow=classic;html=1;rounded=0;exitX=0;exitY=0.5;exitDx=0;exitDy=0;" edge="1" parent="1" source="ab0CNl2YUueAFvUZnDGe-158" target="ab0CNl2YUueAFvUZnDGe-115">
          <mxGeometry width="50" height="50" relative="1" as="geometry">
            <mxPoint x="980" y="2390" as="sourcePoint" />
            <mxPoint x="1030" y="2340" as="targetPoint" />
          </mxGeometry>
        </mxCell>
        <mxCell id="ab0CNl2YUueAFvUZnDGe-165" value="" style="endArrow=classic;html=1;rounded=0;exitX=0;exitY=0.5;exitDx=0;exitDy=0;" edge="1" parent="1" source="ab0CNl2YUueAFvUZnDGe-159" target="ab0CNl2YUueAFvUZnDGe-129">
          <mxGeometry width="50" height="50" relative="1" as="geometry">
            <mxPoint x="1080" y="2670" as="sourcePoint" />
            <mxPoint x="1130" y="2620" as="targetPoint" />
          </mxGeometry>
        </mxCell>
      </root>
    </mxGraphModel>
  </diagram>
</mxfile>
